<?xml version="1.0" encoding="iso-8859-1"?>
<!-- Generator: Adobe Illustrator 16.0.0, SVG Export Plug-In . SVG Version: 6.00 Build 0)  -->
<!DOCTYPE svg PUBLIC "-//W3C//DTD SVG 1.1//EN" "http://www.w3.org/Graphics/SVG/1.1/DTD/svg11.dtd">
<svg version="1.1" id="Capa_1" xmlns="http://www.w3.org/2000/svg" xmlns:xlink="http://www.w3.org/1999/xlink" x="0px" y="0px"
	 width="100%" height="100%" viewBox="0 0 344.514 344.514" style="enable-background:new 0 0 344.514 344.514;"
	 xml:space="preserve">
<g>
	<g>
		<path d="M335.307,307.778c0-21.087-57.534-29.979-92.206-33.417c-4.288-20.988-16.997-47.523-54.962-60.794
			c-22.798-7.968-36.349-20.409-44.412-31.947c-0.021-0.031-0.042-0.062-0.068-0.106c-5.005-7.196-7.897-14.044-9.525-19.251
			c-4.688-14.956-2.867-27.226,0.812-32.303c3.553-4.903,7.73-7.283,12.767-7.283c8.134,0,18.629,6.391,27.934,16.911
			c8.388,10.446,19.669,18.008,32.284,21.885c0.011,0.005,0.021,0.016,0.031,0.021c0.021,0.005,0.042,0.005,0.062,0.011
			c2.415,0.735,4.861,1.385,7.36,1.848c22.767,4.168,47.729-4.438,63.224-21.596c11.308-12.542,16.646-28.232,15.008-44.176
			c-0.95-9.132-3.196-17.906-6.692-26.071c-2.908-6.767-6.614-12.966-11.307-18.749L257.474,33.52
			c-0.052-0.047-0.116-0.081-0.157-0.128c-0.104-0.103-0.221-0.173-0.336-0.262c-0.23-0.189-0.431-0.399-0.698-0.548
			c-26.746-15.726-50.899-25.557-73.215-29.914c-0.067-0.017-0.12-0.066-0.188-0.076c-0.043-0.005-0.085,0.01-0.111,0.005
			C174.087,0.918,165.654,0,157.503,0c-41.578,0-69.1,22.339-90.537,44.2c-21.066,21.476-33.216,67.612-29.543,112.191
			c1.646,20.011,6.38,37.744,13.772,52.473c0.055,0.083,0.081,0.169,0.134,0.263c6.569,13.008,15.212,23.643,25.711,31.329
			c17.491,12.767,26.714,24.021,31.371,33.254c-37.998,3.313-99.204,12.073-99.204,34.068c0,29.057,106.661,36.736,163.053,36.736
			C228.623,344.514,335.307,336.834,335.307,307.778z M234.585,299.21c0,0.605,0,1.161,0.011,1.676
			c-7.238,4.362-29.884,16.399-58.685,16.399c-19.079,0-37.403-5.229-54.539-15.55c1.918-5.249,3.575-14.299-0.485-26.01
			l75.321-46.957C234.103,248.181,234.481,284.67,234.585,299.21z M183.872,132.668c-3.2-3.611-7.945-8.347-13.639-12.393
			l16.246-105.799c18.573,4.407,38.793,12.827,60.454,25.189l-40.338,109.955C197.841,146.065,190.009,140.304,183.872,132.668z
			 M277.044,75.759c3.075,7.161,5.049,14.875,5.878,22.932c1.324,12.88-3.044,25.615-12.299,35.865
			c-13.05,14.459-34.137,21.722-53.303,18.234c-0.13-0.027-0.268-0.063-0.404-0.092l38.693-105.463l11.912,12.609
			C271.321,64.542,274.523,69.901,277.044,75.759z M74.626,51.733c20.874-21.282,45.357-40.977,82.861-40.977
			c5.919,0,12.09,0.59,18.444,1.606l-15.706,102.295c-3.975-1.641-8.161-2.732-12.509-2.732c-8.489,0-15.912,4.06-21.477,11.73
			c-0.627,0.866-1.16,1.861-1.682,2.855L62.29,69.896C65.875,62.633,70.02,56.437,74.626,51.733z M57.812,80.361l63.295,57.544
			c-1.129,8.191-0.274,17.874,2.763,27.57c1.405,4.473,3.628,10.013,7.031,15.956l-72.1,18.353
			c-5.617-12.642-9.294-27.544-10.669-44.274C45.954,129.123,49.814,101.687,57.812,80.361z M83.366,231.761
			c-7.669-5.597-14.213-13.107-19.554-22.162l73.369-18.688c9.257,12.067,23.914,24.504,47.042,32.65l-67.866,42.31
			C110.55,255.767,100.43,244.224,83.366,231.761z"/>
	</g>
</g>
<g>
</g>
<g>
</g>
<g>
</g>
<g>
</g>
<g>
</g>
<g>
</g>
<g>
</g>
<g>
</g>
<g>
</g>
<g>
</g>
<g>
</g>
<g>
</g>
<g>
</g>
<g>
</g>
<g>
</g>
</svg>
